# xmcd
#
# Track frame offsets: 
#        150
#        12869
#        29366
#        41589
#        56974
#        68244
#        80024
#        99466
#        113143
#
# Disc length: 1904 seconds
#
# Revision: 0
# Processed by: cddbd v1.5.2PL0 Copyright (c) Steve Scherf et al.
# Submitted via: ExactAudioCopyFreeDBPlugin 1.0
#
DISCID=74076e09
DTITLE=Molly Gene One Whoaman Band - Delta Thrash
DYEAR=2015
DGENRE=Blues
TTITLE0=Delta Thrash Way
TTITLE1=Top Shelf Man
TTITLE2=Roofied and Ripped Off
TTITLE3=My Bumble Bee
TTITLE4=Turkey Trailer Farm
TTITLE5=T.N.T.
TTITLE6=Low Tide
TTITLE7=Mississippi Mud
TTITLE8=Kings and Queens
EXTD=
EXTT0=
EXTT1=
EXTT2=
EXTT3=
EXTT4=
EXTT5=
EXTT6=
EXTT7=
EXTT8=
PLAYORDER=
